<?xml version="1.0" standalone="no"?>
<!DOCTYPE svg PUBLIC "-//W3C//DTD SVG 20010904//EN"
 "http://www.w3.org/TR/2001/REC-SVG-20010904/DTD/svg10.dtd">
<svg version="1.0" xmlns="http://www.w3.org/2000/svg"
 width="700.000000pt" height="700.000000pt" viewBox="0 0 700.000000 700.000000"
 preserveAspectRatio="xMidYMid meet">
<metadata>
Created by potrace 1.14, written by Peter Selinger 2001-2017
</metadata>
<g transform="translate(0.000000,700.000000) scale(0.100000,-0.100000)"
fill="#000000" stroke="none">
<path d="M5687 5853 c-674 -673 -1155 -1161 -1163 -1180 -12 -27 -14 -170 -14
-845 0 -919 -5 -864 77 -903 l42 -20 1 -212 0 -212 -87 5 c-222 13 -397 45
-593 111 -319 106 -594 277 -835 518 -381 381 -589 843 -626 1390 -5 83 -14
162 -20 177 -22 55 -95 76 -154 45 -31 -16 -2270 -2254 -2299 -2297 -34 -51
-14 -346 39 -580 201 -892 903 -1594 1795 -1795 311 -71 691 -74 1003 -10 337
70 660 215 941 423 128 95 369 336 467 467 91 123 185 278 248 410 65 135 131
317 131 360 0 45 -23 92 -50 100 -24 8 -24 7 0 125 11 52 25 147 31 212 l13
118 76 0 c181 0 441 47 664 121 882 290 1522 1089 1616 2018 15 149 14 2515
-1 2544 -20 40 -51 57 -104 57 l-50 0 -1148 -1147z"/>
</g>
</svg>
